<?xml version="1.0" encoding="UTF-8"?>
<svg width="23px" height="23px" viewBox="0 0 23 23" version="1.1" xmlns="http://www.w3.org/2000/svg" xmlns:xlink="http://www.w3.org/1999/xlink">
    <!-- Generator: Sketch 48.2 (47327) - http://www.bohemiancoding.com/sketch -->
    <title>icon-search</title>
    <desc>Created with Sketch.</desc>
    <defs></defs>
    <g id="Icons-&amp;-Styleguide" stroke="none" stroke-width="1" fill="none" fill-rule="evenodd">
        <g id="icon-search" fill="#5E5E5E" fill-rule="nonzero">
            <path d="M14.3545558,13.6571242 L19.9412358,19.2438042 L19.1776945,20.0073455 L13.5602424,14.3898934 C12.4487686,15.2561033 11.0420395,15.7735655 9.51207949,15.7735655 C5.9155573,15.7735655 3,12.9141055 3,9.38678276 C3,5.85946004 5.9155573,3 9.51207949,3 C13.1086017,3 16.024159,5.85946004 16.024159,9.38678276 C16.024159,11.0285862 15.3925134,12.5256994 14.3545558,13.6571242 Z M9.51207949,14.7145313 C12.5122388,14.7145313 14.9443485,12.329217 14.9443485,9.38678276 C14.9443485,6.44434846 12.5122388,4.05903417 9.51207949,4.05903417 C6.51192014,4.05903417 4.07981044,6.44434846 4.07981044,9.38678276 C4.07981044,12.329217 6.51192014,14.7145313 9.51207949,14.7145313 Z" id="Combined-Shape"></path>
        </g>
    </g>
</svg>