<?xml version="1.0" encoding="UTF-8"?>
<svg width="50px" height="13px" viewBox="0 0 50 13" version="1.1" xmlns="http://www.w3.org/2000/svg" xmlns:xlink="http://www.w3.org/1999/xlink">
    <!-- Generator: Sketch 41.2 (35397) - http://www.bohemiancoding.com/sketch -->
    <title>icon-slider</title>
    <desc>Created with Sketch.</desc>
    <defs></defs>
    <g id="All-Comps" stroke="none" stroke-width="1" fill="none" fill-rule="evenodd">
        <g id="icon-slider" fill="#5E5E5E">
            <g id="slider" transform="translate(21.000000, 2.000000)">
                <path d="M4.5,9 C6.98528137,9 9,6.98528137 9,4.5 C9,2.01471863 6.98528137,0 4.5,0 C2.01471863,0 0,2.01471863 0,4.5 C0,6.98528137 2.01471863,9 4.5,9 Z M4.5,8 C2.56700338,8 1,6.43299662 1,4.5 C1,2.56700338 2.56700338,1 4.5,1 C6.43299662,1 8,2.56700338 8,4.5 C8,6.43299662 6.43299662,8 4.5,8 Z" id="Combined-Shape"></path>
            </g>
            <path d="M30.9775785,7 L42,7 L42,6 L30.9775785,6 C30.9924187,6.16468102 31,6.33145515 31,6.5 C31,6.66854485 30.9924187,6.83531898 30.9775785,7 Z M20.0224215,7 L9,7 L9,6 L20.0224215,6 C20.0075813,6.16468102 20,6.33145515 20,6.5 C20,6.66854485 20.0075813,6.83531898 20.0224215,7 Z" id="Combined-Shape"></path>
        </g>
    </g>
</svg>